<?xml version="1.0" standalone="no"?>
<!DOCTYPE svg PUBLIC "-//W3C//DTD SVG 20010904//EN"
 "http://www.w3.org/TR/2001/REC-SVG-20010904/DTD/svg10.dtd">
<svg version="1.0" xmlns="http://www.w3.org/2000/svg"
 width="16.000000pt" height="16.000000pt" viewBox="0 0 16.000000 16.000000"
 preserveAspectRatio="xMidYMid meet">
<metadata>
Created by potrace 1.11, written by Peter Selinger 2001-2013
</metadata>
<g transform="translate(0.000000,16.000000) scale(0.002000,-0.002000)"
fill="#000000" stroke="none">
<path d="M0 4000 l0 -4000 4000 0 4000 0 0 4000 0 4000 -4000 0 -4000 0 0
-4000z m2628 3236 c455 -76 710 -273 804 -621 29 -111 32 -396 5 -495 -61
-219 -223 -419 -430 -532 -43 -24 -85 -48 -94 -54 -14 -9 30 -79 324 -515 187
-277 388 -574 447 -659 l106 -155 -357 -3 c-278 -2 -360 1 -369 10 -6 7 -172
271 -368 586 l-357 572 -170 0 -169 0 0 -585 0 -585 -330 0 -330 0 0 1531 0
1530 593 -4 c500 -3 608 -6 695 -21z m2172 -923 c0 -945 4 -1099 35 -1218 53
-204 172 -324 370 -372 98 -23 326 -23 415 0 158 42 262 125 325 259 71 152
68 107 72 1251 l4 1027 324 0 325 0 0 -1034 c0 -677 -4 -1062 -11 -1113 -69
-507 -394 -828 -944 -931 -127 -24 -503 -24 -630 0 -277 52 -473 148 -632 310
-149 150 -222 289 -276 523 -20 88 -21 118 -24 1168 l-4 1077 326 0 325 0 0
-947z m-2245 -2523 c400 -45 687 -167 921 -392 156 -151 258 -315 328 -528 91
-279 109 -659 45 -988 -114 -589 -509 -973 -1129 -1096 -202 -40 -313 -46
-862 -46 l-518 0 0 1530 0 1530 563 0 c309 0 603 -5 652 -10z m2605 -615 c248
-491 317 -621 326 -610 6 8 150 289 320 625 l309 610 352 0 353 0 -35 -62
c-19 -35 -248 -457 -509 -938 l-476 -875 0 -592 0 -593 -325 0 -325 0 0 588 0
589 -486 904 c-267 497 -495 921 -505 942 l-19 37 352 0 353 0 315 -625z"/>
<path d="M2000 6316 l0 -416 130 0 c479 0 670 121 670 424 0 182 -68 289 -221
347 -93 36 -188 49 -386 56 l-193 6 0 -417z"/>
<path d="M2000 2275 l0 -995 165 0 c201 0 343 15 455 47 224 64 373 182 469
373 76 149 109 296 118 520 10 259 -28 476 -114 650 -87 175 -248 306 -444
359 -109 30 -229 41 -451 41 l-198 0 0 -995z"/>
</g>
</svg>
